<svg xmlns="http://www.w3.org/2000/svg" xmlns:xlink="http://www.w3.org/1999/xlink" width="5000" zoomAndPan="magnify" viewBox="0 0 3750 3749.249928" height="4999" preserveAspectRatio="xMidYMid meet" version="1.0"><defs><clipPath id="09fac6ea7c"><path d="M 730.976562 793 L 2763.070312 793 L 2763.070312 2839 L 730.976562 2839 Z M 730.976562 793 " clip-rule="nonzero"/></clipPath><clipPath id="1a54bead1f"><path d="M 2088 2124.027344 L 2191 2124.027344 L 2191 2232 L 2088 2232 Z M 2088 2124.027344 " clip-rule="nonzero"/></clipPath><clipPath id="efaf4dd5bf"><path d="M 2087.644531 2219 L 2197.125 2219 L 2197.125 2244.753906 L 2087.644531 2244.753906 Z M 2087.644531 2219 " clip-rule="nonzero"/></clipPath></defs><g clip-path="url(#09fac6ea7c)"><path fill="#000000" d="M 732.277344 2427.601562 C 727.167969 2501.949219 735.859375 2579.179688 781.347656 2640.792969 C 834.472656 2712.742188 922.578125 2749.386719 1006.09375 2772.457031 C 1155.585938 2813.753906 1314.804688 2822.839844 1468.945312 2829.769531 C 1697.390625 2840.039062 1928.292969 2843.839844 2156.636719 2829.886719 C 2368.238281 2816.953125 2659.613281 2792.480469 2721.785156 2545.699219 C 2759.140625 2397.417969 2740.453125 2231.792969 2741.914062 2081.121094 C 2743.628906 1904.546875 2747.371094 1727.988281 2754.300781 1551.535156 C 2757.921875 1459.363281 2764.417969 1367.058594 2764.992188 1274.792969 C 2765.582031 1180.90625 2765.414062 1081.003906 2730.585938 992.289062 C 2693.433594 897.644531 2616.707031 834.765625 2524.074219 797.4375 C 2479.976562 779.667969 2436.046875 833.1875 2486.292969 853.433594 C 2567.929688 886.328125 2630.402344 937.152344 2658.890625 1022.539062 C 2685 1100.800781 2683.746094 1187.828125 2683.34375 1269.375 C 2683 1338.289062 2678.601562 1407.195312 2675.621094 1476.027344 C 2669.582031 1615.476562 2665.359375 1754.992188 2662.800781 1894.550781 C 2659.488281 2075.117188 2670.726562 2258.902344 2655.46875 2438.867188 C 2648.859375 2516.839844 2629.851562 2599.179688 2568.390625 2652.648438 C 2487.164062 2723.316406 2367.382812 2740.265625 2264.539062 2752.414062 C 2060.53125 2776.515625 1852.492188 2771.871094 1647.507812 2768.015625 C 1479.328125 2764.851562 1308.949219 2760.328125 1142.527344 2733.753906 C 1050.332031 2719.03125 935.488281 2699.386719 866.390625 2629.902344 C 814.03125 2577.246094 809.105469 2501.453125 813.929688 2431.257812 C 816.796875 2389.550781 735.460938 2381.28125 732.277344 2427.601562 Z M 732.277344 2427.601562 " fill-opacity="1" fill-rule="nonzero"/></g><path fill="#000000" d="M 1854.054688 738.171875 C 1690.605469 729.71875 1527.6875 723.402344 1364.050781 719.96875 C 1227.789062 717.109375 1070.9375 688.230469 956.519531 783.328125 C 868.898438 856.148438 845.757812 975.871094 834.292969 1083.332031 C 820.183594 1215.574219 815.457031 1348.988281 804.773438 1481.566406 C 790.550781 1658.035156 775.1875 1834.414062 761.019531 2010.890625 C 753.054688 2110.109375 745.390625 2209.351562 738.3125 2308.640625 C 734.5625 2361.210938 725.03125 2416.015625 739.472656 2467.792969 C 793.878906 2662.878906 1095.863281 2673.828125 1254.679688 2682.488281 C 1438.804688 2692.53125 1624.261719 2688.300781 1808.625 2688.835938 C 1936.65625 2689.203125 2066.285156 2690.84375 2193.578125 2674.886719 C 2292.328125 2662.507812 2397.335938 2635.515625 2462.90625 2555.007812 C 2524.511719 2479.371094 2539.34375 2373.105469 2545.335938 2278.933594 C 2566.675781 1943.597656 2579.1875 1607.46875 2596.023438 1271.878906 C 2601.484375 1162.980469 2615.996094 1050.339844 2612.507812 941.25 C 2605.425781 719.742188 2263.019531 748.410156 2117.742188 745.8125 C 2029.808594 744.238281 1941.910156 742.382812 1854.054688 738.171875 C 1800.105469 735.585938 1810.304688 803.238281 1858.78125 805.5625 C 2006.238281 812.628906 2154.136719 809.875 2301.480469 818.664062 C 2367.207031 822.585938 2485.578125 821.429688 2520.398438 891.96875 C 2534.9375 921.414062 2530.082031 953.882812 2528.523438 985.289062 C 2525.601562 1044.121094 2522.652344 1102.953125 2519.707031 1161.785156 C 2502.4375 1506.472656 2485.097656 1851.160156 2467.699219 2195.84375 C 2460.84375 2331.660156 2458.863281 2505.28125 2317.921875 2571.253906 C 2232.828125 2611.089844 2130.605469 2615.03125 2038.335938 2618.609375 C 1895.285156 2624.152344 1751.90625 2621.167969 1608.796875 2620.355469 C 1443.066406 2619.414062 1276.367188 2623.734375 1111.53125 2603.222656 C 1028.472656 2592.882812 923.507812 2578.78125 858.050781 2520.652344 C 792.691406 2462.605469 815.808594 2369.863281 821.351562 2292.960938 C 834.191406 2114.8125 848.839844 1936.804688 863.726562 1758.820312 C 875.710938 1615.496094 888.335938 1472.195312 898.398438 1328.714844 C 906.742188 1209.730469 905.507812 1085.882812 937.9375 970.222656 C 968.871094 859.894531 1041.589844 793.769531 1157.101562 782.113281 C 1242.941406 773.453125 1331.667969 787.078125 1417.804688 787.667969 C 1507.667969 788.285156 1597.496094 791.53125 1687.242188 796.023438 C 1744.441406 798.890625 1801.589844 802.605469 1858.78125 805.5625 C 1912.734375 808.351562 1902.492188 740.675781 1854.054688 738.171875 Z M 1854.054688 738.171875 " fill-opacity="1" fill-rule="nonzero"/><path fill="#000000" d="M 1191.640625 1444.726562 C 1539.492188 1443.335938 1887.34375 1441.941406 2235.195312 1440.550781 C 2288.964844 1440.335938 2279.3125 1372.964844 2230.464844 1373.160156 C 1882.617188 1374.550781 1534.765625 1375.941406 1186.914062 1377.332031 C 1133.144531 1377.550781 1142.796875 1444.921875 1191.640625 1444.726562 Z M 1191.640625 1444.726562 " fill-opacity="1" fill-rule="nonzero"/><path fill="#000000" d="M 1238.882812 1813.367188 C 1547.285156 1793.390625 1856.835938 1796.351562 2164.890625 1820.75 C 2218.808594 1825.023438 2208.292969 1757.171875 2160.164062 1753.359375 C 1844.941406 1728.394531 1528.84375 1726.867188 1213.328125 1747.304688 C 1193.6875 1748.578125 1181.058594 1769.378906 1187.261719 1787.230469 C 1194.679688 1808.570312 1219.171875 1814.640625 1238.882812 1813.367188 Z M 1238.882812 1813.367188 " fill-opacity="1" fill-rule="nonzero"/><path fill="#000000" d="M 1124.335938 2215.917969 C 1306.992188 2217.097656 1489.605469 2221.5 1672.101562 2229.121094 C 1726.046875 2231.375 1715.910156 2163.757812 1667.375 2161.730469 C 1484.875 2154.109375 1302.261719 2149.707031 1119.609375 2148.523438 C 1065.78125 2148.175781 1075.546875 2215.601562 1124.335938 2215.917969 Z M 1124.335938 2215.917969 " fill-opacity="1" fill-rule="nonzero"/><path fill="#000000" d="M 1347.972656 958.390625 C 1302.679688 923.089844 1266.625 874.242188 1257.332031 820.304688 C 1253.003906 795.191406 1253.027344 773.214844 1257.613281 751.675781 C 1263.027344 726.246094 1268.789062 712.371094 1284.488281 691.808594 C 1285.828125 690.058594 1287.226562 688.363281 1288.609375 686.648438 C 1295.035156 678.679688 1285.863281 688.816406 1290.25 684.679688 C 1291.125 683.855469 1291.898438 682.972656 1292.835938 682.21875 C 1295.535156 680.054688 1298.304688 678.011719 1301.160156 676.058594 C 1303.039062 674.773438 1304.984375 673.59375 1306.867188 672.316406 C 1313.953125 667.507812 1298.953125 676.542969 1307.136719 672.152344 C 1312.695312 669.167969 1318.175781 666.109375 1323.890625 663.414062 C 1330.375 660.351562 1337 657.582031 1343.753906 655.160156 C 1346.292969 654.25 1359.050781 651.003906 1347.429688 653.789062 C 1352.035156 652.683594 1356.570312 651.390625 1361.230469 650.46875 C 1364.785156 649.769531 1368.371094 649.316406 1371.941406 648.726562 C 1373.933594 648.398438 1376.027344 648.472656 1377.996094 648.074219 C 1368.902344 649.917969 1371.996094 648.207031 1374.929688 648.296875 C 1379.058594 648.417969 1383.183594 648.203125 1387.316406 648.460938 C 1389.8125 648.617188 1392.308594 649.03125 1394.800781 649.15625 C 1389.515625 648.894531 1387.25 647.503906 1393.863281 649.140625 C 1398.933594 650.394531 1403.84375 651.84375 1408.808594 653.472656 C 1398.390625 650.054688 1408.902344 654.128906 1413.226562 656.210938 C 1415.230469 657.175781 1422.894531 662.578125 1414.171875 656.375 C 1416.578125 658.085938 1418.960938 659.804688 1421.261719 661.65625 C 1423.25 663.257812 1425.175781 664.921875 1427.0625 666.636719 C 1428.378906 667.835938 1435.96875 676.089844 1430.484375 669.761719 C 1451.675781 694.207031 1461.792969 718.742188 1471.582031 750.5 C 1483.910156 790.507812 1563.816406 783.917969 1549.269531 736.710938 C 1530.515625 675.859375 1495.425781 616.558594 1433.582031 592.4375 C 1388.378906 574.804688 1339.804688 579.242188 1295.152344 596.320312 C 1272.015625 605.167969 1246.601562 617.53125 1228.71875 635.058594 C 1186.214844 676.714844 1168.457031 739.175781 1173.25 797.566406 C 1180.03125 880.1875 1228.617188 952.78125 1292.820312 1002.820312 C 1308.691406 1015.191406 1333.929688 1019.605469 1350.589844 1006.003906 C 1366.195312 993.265625 1363.136719 970.210938 1347.972656 958.390625 Z M 1347.972656 958.390625 " fill-opacity="1" fill-rule="nonzero"/><path fill="#000000" d="M 1844.46875 964.625 C 1811.253906 942.894531 1779.789062 917.828125 1751.933594 889.511719 C 1747.980469 885.496094 1750.84375 888.542969 1747.148438 884.449219 C 1744.4375 881.449219 1741.761719 878.410156 1739.144531 875.328125 C 1733.753906 868.988281 1728.578125 862.464844 1723.652344 855.753906 C 1719.398438 849.957031 1715.332031 844.019531 1711.488281 837.941406 C 1709.65625 835.035156 1707.910156 832.082031 1706.144531 829.136719 C 1703.992188 825.542969 1706.234375 829.40625 1706.5625 830.003906 C 1705.515625 828.09375 1704.507812 826.160156 1703.519531 824.21875 C 1697.734375 812.863281 1692.796875 801.070312 1688.925781 788.925781 C 1688.058594 786.199219 1687.242188 783.457031 1686.488281 780.699219 C 1686.144531 779.445312 1684.25 771.527344 1685.132812 775.597656 C 1686.023438 779.6875 1684.46875 771.875 1684.253906 770.632812 C 1683.722656 767.589844 1683.253906 764.53125 1682.875 761.464844 C 1681.699219 751.960938 1681.515625 742.472656 1681.824219 732.914062 C 1681.863281 731.640625 1682.414062 724.101562 1681.96875 729.308594 C 1681.527344 734.5 1682.261719 726.984375 1682.453125 725.710938 C 1683.191406 720.734375 1684.003906 715.789062 1685.070312 710.871094 C 1687.117188 701.429688 1689.867188 692.140625 1693.261719 683.09375 C 1694.070312 680.933594 1694.941406 678.796875 1695.804688 676.65625 C 1696.289062 675.453125 1699.449219 668.617188 1697.195312 673.351562 C 1694.933594 678.097656 1698.246094 671.332031 1698.847656 670.207031 C 1700.09375 667.867188 1701.316406 665.511719 1702.625 663.203125 C 1707.398438 654.792969 1712.808594 646.734375 1718.875 639.203125 C 1720.242188 637.507812 1721.746094 635.90625 1723.082031 634.1875 C 1726.917969 629.246094 1718.285156 638.605469 1722.859375 634.410156 C 1726.25 631.300781 1729.417969 627.996094 1732.945312 625.027344 C 1736.128906 622.34375 1739.460938 619.902344 1742.828125 617.464844 C 1743.984375 616.625 1750.082031 612.777344 1744.84375 615.996094 C 1739.605469 619.207031 1746.5 615.164062 1747.902344 614.449219 C 1751.472656 612.628906 1755.15625 611.164062 1758.855469 609.632812 C 1766.390625 606.519531 1757.035156 610.449219 1756.949219 610.019531 C 1756.914062 609.855469 1763.105469 608.523438 1763.667969 608.410156 C 1765.609375 608.019531 1767.566406 607.75 1769.519531 607.433594 C 1771.53125 607.105469 1777.75 605.296875 1771.238281 607.132812 C 1765.320312 608.804688 1770.417969 607.183594 1773.050781 607.351562 C 1775.394531 607.496094 1777.816406 607.78125 1780.160156 607.8125 C 1786.886719 607.902344 1770.890625 605.457031 1777.449219 607.363281 C 1779.484375 607.953125 1781.617188 608.273438 1783.671875 608.828125 C 1785.777344 609.394531 1787.832031 610.207031 1789.9375 610.75 C 1796.101562 612.339844 1781.050781 606.472656 1789.089844 610.542969 C 1794.132812 613.097656 1798.953125 616.011719 1803.941406 618.632812 C 1807.742188 620.628906 1800.566406 616.390625 1800.585938 616.40625 C 1801.898438 617.558594 1803.484375 618.4375 1804.851562 619.527344 C 1807.363281 621.523438 1809.890625 623.484375 1812.324219 625.570312 C 1814.878906 627.757812 1817.371094 630.023438 1819.796875 632.351562 C 1820.878906 633.390625 1821.914062 634.472656 1822.996094 635.503906 C 1826.984375 639.3125 1818.84375 630.800781 1822.636719 635.058594 C 1827.816406 640.867188 1832.789062 646.820312 1837.472656 653.042969 C 1862.058594 685.722656 1877.691406 720.25 1892.730469 759.316406 C 1900.25 778.855469 1924.5625 789.0625 1944.351562 785.453125 C 1963.097656 782.035156 1977.886719 764.933594 1970.417969 745.527344 C 1943.667969 676.039062 1906.375 602.046875 1840.660156 561.957031 C 1797.109375 535.390625 1741 532.085938 1696.425781 557.984375 C 1608.078125 609.3125 1580.082031 726.574219 1616.746094 818.050781 C 1652.128906 906.320312 1729.300781 969.988281 1806.6875 1020.625 C 1822.703125 1031.101562 1850.933594 1027.851562 1861.847656 1011.460938 C 1874.324219 992.726562 1859.847656 974.6875 1844.46875 964.625 Z M 1844.46875 964.625 " fill-opacity="1" fill-rule="nonzero"/><path fill="#000000" d="M 2330.308594 970.480469 C 2312.625 958.371094 2294.707031 946.609375 2276.707031 934.972656 C 2269.8125 930.511719 2262.902344 926.066406 2256.03125 921.566406 C 2254.289062 920.421875 2252.554688 919.277344 2250.8125 918.128906 C 2251.855469 918.816406 2257.917969 922.96875 2251.902344 918.835938 C 2248.664062 916.613281 2245.410156 914.414062 2242.199219 912.15625 C 2230.707031 904.070312 2219.488281 895.535156 2209.203125 885.941406 C 2208.265625 885.070312 2200.113281 877.066406 2204.367188 881.398438 C 2208.292969 885.394531 2202.089844 878.800781 2200.929688 877.429688 C 2196.53125 872.222656 2192.457031 866.742188 2188.769531 861.007812 C 2187.59375 859.183594 2182.675781 849.429688 2186.648438 857.8125 C 2185.289062 854.945312 2183.765625 852.164062 2182.445312 849.277344 C 2179.226562 842.257812 2176.503906 835.023438 2174.179688 827.664062 C 2172.921875 823.675781 2171.816406 819.652344 2170.75 815.609375 C 2170.332031 814.035156 2169.9375 812.449219 2169.578125 810.863281 C 2170.792969 816.25 2169.578125 810.546875 2169.425781 809.667969 C 2167.746094 799.910156 2166.09375 790.207031 2165 780.359375 C 2163.019531 762.527344 2162.027344 744.546875 2162.546875 726.605469 C 2162.664062 722.503906 2162.90625 718.417969 2163.140625 714.320312 C 2163.226562 712.835938 2163.359375 711.351562 2163.484375 709.867188 C 2162.917969 716.605469 2163.324219 711.496094 2163.519531 710.113281 C 2164.535156 702.941406 2165.535156 695.8125 2167.089844 688.730469 C 2168.410156 682.691406 2170.011719 676.710938 2171.9375 670.839844 C 2172.785156 668.265625 2173.683594 665.710938 2174.660156 663.183594 C 2175.199219 661.789062 2175.828125 660.410156 2176.34375 659.007812 C 2178.867188 652.160156 2173.671875 663.636719 2175.800781 660.171875 C 2178.5 655.773438 2180.578125 651.035156 2183.425781 646.691406 C 2184.613281 644.878906 2190.445312 634.566406 2192.746094 634.457031 C 2193.125 634.441406 2186.652344 640.308594 2190.453125 636.988281 C 2191.355469 636.203125 2192.183594 635.28125 2193.054688 634.46875 C 2194.578125 633.050781 2196.148438 631.6875 2197.761719 630.378906 C 2199.351562 629.089844 2200.996094 627.894531 2202.640625 626.683594 C 2203.558594 626.007812 2204.613281 625.457031 2205.507812 624.753906 C 2210.148438 621.113281 2199.613281 627.425781 2202.664062 626.484375 C 2206.429688 625.324219 2210.523438 622.828125 2214.160156 621.207031 C 2221.84375 617.789062 2208.28125 622.277344 2212.71875 621.496094 C 2214.910156 621.109375 2217.070312 620.425781 2219.265625 620.011719 C 2221.476562 619.59375 2223.71875 619.398438 2225.933594 619.003906 C 2233.664062 617.632812 2221.449219 618.9375 2223.144531 619.109375 C 2227.640625 619.566406 2232.398438 619.265625 2236.941406 619.554688 C 2244.722656 620.054688 2237.660156 620.300781 2233.863281 618.898438 C 2235.996094 619.683594 2238.652344 619.789062 2240.878906 620.304688 C 2245.660156 621.414062 2250.222656 623.042969 2254.917969 624.429688 C 2260.183594 625.988281 2244.375 619.71875 2253.332031 623.882812 C 2255.355469 624.824219 2257.398438 625.707031 2259.402344 626.6875 C 2264.105469 628.984375 2268.558594 631.652344 2273.085938 634.261719 C 2280.867188 638.746094 2266.726562 629.449219 2271.933594 633.4375 C 2274.09375 635.085938 2276.355469 636.601562 2278.507812 638.261719 C 2282.914062 641.65625 2287.15625 645.265625 2291.230469 649.054688 C 2293.574219 651.238281 2295.75 653.605469 2298.09375 655.78125 C 2301.152344 658.621094 2294.621094 652.300781 2295.058594 652.542969 C 2296.417969 653.304688 2298.394531 656.269531 2299.40625 657.449219 C 2303.523438 662.25 2307.40625 667.25 2311.050781 672.417969 C 2314.824219 677.769531 2317.996094 683.441406 2321.558594 688.914062 C 2315.867188 680.164062 2322.015625 689.929688 2323.152344 692.222656 C 2324.753906 695.457031 2326.277344 698.730469 2327.714844 702.039062 C 2330.503906 708.449219 2332.980469 714.996094 2335.152344 721.640625 C 2336.335938 725.25 2337.425781 728.886719 2338.429688 732.550781 C 2339.175781 735.289062 2340.992188 743.84375 2339.5 736.382812 C 2342.71875 752.488281 2344.589844 768.621094 2344.894531 785.054688 C 2345.679688 827.195312 2427.414062 835.140625 2426.550781 788.710938 C 2425.429688 728.671875 2404.496094 667.238281 2363.710938 622.457031 C 2327.105469 582.257812 2275.375 550.511719 2219.269531 551.6875 C 2161.09375 552.90625 2117.058594 586.351562 2095.539062 639.648438 C 2083.394531 669.734375 2080.453125 703.703125 2080.78125 735.855469 C 2081.1875 775.785156 2086.492188 818.066406 2101.4375 855.324219 C 2115.722656 890.9375 2140.179688 920.519531 2170.171875 944.097656 C 2186.773438 957.144531 2204.578125 968.65625 2222.25 980.171875 C 2231.207031 986.007812 2240.207031 991.777344 2249.167969 997.601562 C 2254.277344 1000.925781 2259.378906 1004.261719 2264.460938 1007.628906 C 2263.019531 1006.675781 2258.628906 1003.695312 2265.324219 1008.222656 C 2268.609375 1010.445312 2271.886719 1012.671875 2275.15625 1014.910156 C 2291.863281 1026.347656 2315.609375 1032.234375 2332.925781 1018.09375 C 2347.796875 1005.953125 2346.328125 981.449219 2330.308594 970.480469 Z M 2330.308594 970.480469 " fill-opacity="1" fill-rule="nonzero"/><g clip-path="url(#1a54bead1f)"><path fill="#ffffff" d="M 2134.4375 2174.679688 C 2137.609375 2173.726562 2140.8125 2176.332031 2141.40625 2178.808594 C 2143.214844 2186.367188 2131.832031 2188.3125 2130.34375 2181.433594 C 2129.59375 2177.980469 2131.855469 2175.457031 2134.4375 2174.679688 Z M 2094.578125 2220.859375 C 2097.757812 2209.53125 2102.53125 2194.699219 2106.265625 2183.046875 L 2110.089844 2170.574219 C 2110.617188 2168.585938 2111.378906 2166.242188 2112.015625 2164.261719 C 2113.160156 2160.691406 2113.070312 2159.351562 2114.738281 2158.714844 C 2118.664062 2157.234375 2122.679688 2155.773438 2126.660156 2154.339844 C 2130.679688 2152.890625 2134.730469 2151.363281 2138.703125 2149.855469 C 2140.726562 2149.085938 2142.730469 2148.441406 2144.761719 2147.664062 C 2146.46875 2147.011719 2148.960938 2145.925781 2150.617188 2145.523438 L 2169.875 2164.816406 C 2168.984375 2168.925781 2167.089844 2173.597656 2165.945312 2177.753906 L 2160.007812 2197.042969 C 2159.039062 2200.066406 2159.472656 2200.660156 2157.964844 2201.285156 C 2157.496094 2201.484375 2157.023438 2201.652344 2156.550781 2201.832031 L 2096.101562 2225.230469 L 2104.835938 2215.96875 C 2105.632812 2215.117188 2106.214844 2214.425781 2106.996094 2213.5625 C 2107.734375 2212.75 2108.554688 2212.101562 2109.289062 2211.296875 L 2130.945312 2188.238281 C 2133.816406 2189.007812 2134.855469 2190.09375 2138.625 2189.128906 C 2146.625 2187.082031 2147.175781 2176.511719 2142 2173 C 2140.144531 2171.742188 2138.410156 2170.660156 2135.410156 2170.78125 C 2130.933594 2170.957031 2126.859375 2174.355469 2126.363281 2179.027344 C 2126.226562 2180.335938 2126.355469 2181.625 2126.742188 2182.828125 C 2126.988281 2183.597656 2127.734375 2185.207031 2128.101562 2185.578125 L 2121.785156 2192.28125 C 2119.4375 2194.597656 2116.984375 2197.585938 2115.445312 2198.972656 L 2102.96875 2212.148438 C 2101.605469 2213.773438 2100.179688 2215.046875 2098.773438 2216.648438 Z M 2148.355469 2137.765625 C 2148.53125 2137.148438 2148.371094 2137.457031 2148.8125 2136.929688 C 2149.03125 2136.667969 2149.101562 2136.617188 2149.339844 2136.367188 C 2149.902344 2135.785156 2150.007812 2135.820312 2150.636719 2135.277344 C 2151.597656 2134.449219 2151.976562 2133.640625 2152.8125 2132.886719 C 2154.113281 2131.710938 2155.667969 2130.34375 2156.980469 2128.792969 L 2157.351562 2128.292969 C 2157.367188 2128.214844 2157.40625 2128.199219 2157.433594 2128.148438 C 2158.738281 2128.847656 2162.414062 2132.980469 2163.246094 2133.71875 L 2176.003906 2146.390625 C 2177.269531 2147.816406 2178.382812 2148.535156 2179.566406 2150.003906 C 2180.59375 2151.273438 2181.917969 2152.34375 2183.09375 2153.648438 L 2186.597656 2157.210938 L 2177.136719 2166.636719 C 2176.597656 2166.011719 2175.800781 2165.371094 2175.191406 2164.800781 L 2169.796875 2159.335938 C 2169.046875 2158.601562 2168.554688 2158.273438 2167.871094 2157.5625 C 2166.488281 2156.136719 2166.425781 2155.773438 2164.375 2153.882812 Z M 2173.070312 2167.945312 C 2174.042969 2168.96875 2175.972656 2171.511719 2178.714844 2170.3125 C 2179.285156 2170.0625 2187.699219 2161.472656 2189.410156 2159.921875 C 2193.074219 2156.597656 2188.496094 2153.910156 2186.921875 2152.210938 C 2185.609375 2150.792969 2184.21875 2149.390625 2182.808594 2148.0625 C 2179.90625 2145.332031 2177.335938 2142.457031 2174.429688 2139.703125 C 2173.027344 2138.371094 2171.546875 2136.863281 2170.207031 2135.453125 L 2159.734375 2124.832031 C 2157.136719 2122.695312 2154.859375 2125.824219 2154.230469 2126.484375 C 2152.34375 2128.457031 2149.980469 2130.496094 2148.015625 2132.65625 C 2147.003906 2133.773438 2144.476562 2135.523438 2144.335938 2137.449219 C 2144.164062 2139.765625 2146.589844 2141.128906 2147.535156 2142.429688 C 2146.707031 2143.078125 2123.742188 2151.238281 2120.496094 2152.511719 C 2118.230469 2153.402344 2115.976562 2154.203125 2113.695312 2155.054688 C 2109.828125 2156.496094 2110.621094 2155.980469 2109.308594 2160.015625 C 2107.785156 2164.699219 2106.363281 2169.398438 2104.921875 2174.121094 C 2100.707031 2187.941406 2095.742188 2203.011719 2091.777344 2216.828125 C 2091.078125 2219.253906 2090.304688 2221.523438 2089.582031 2223.980469 C 2089.132812 2225.507812 2087.164062 2230.066406 2088.445312 2231.136719 C 2089.734375 2232.207031 2093.9375 2230.144531 2095.414062 2229.589844 C 2097.632812 2228.757812 2099.875 2227.820312 2102.132812 2226.960938 L 2142.253906 2211.445312 C 2146.777344 2209.640625 2151.242188 2208.054688 2155.695312 2206.195312 C 2157.53125 2205.429688 2161.230469 2204.46875 2162.050781 2203.191406 C 2162.753906 2202.097656 2163.828125 2197.851562 2164.285156 2196.316406 C 2165.707031 2191.546875 2167.339844 2186.804688 2168.734375 2182.050781 C 2170.042969 2177.601562 2171.414062 2172.171875 2173.070312 2167.945312 Z M 2173.070312 2167.945312 " fill-opacity="1" fill-rule="evenodd"/></g><g clip-path="url(#efaf4dd5bf)"><path fill="#ffffff" d="M 2161.351562 2223.503906 C 2173.617188 2221.96875 2185.796875 2226.957031 2194.359375 2233.03125 C 2195.457031 2233.816406 2197.171875 2233.683594 2197.386719 2232.210938 C 2197.636719 2230.488281 2194.191406 2228.785156 2192.347656 2227.644531 C 2179.007812 2219.410156 2161.734375 2216.453125 2147.515625 2223.707031 C 2138.441406 2228.339844 2133.476562 2233.839844 2124.128906 2238.363281 C 2114.3125 2243.109375 2102.058594 2242.019531 2093.625 2236.601562 C 2092.453125 2235.851562 2091.824219 2235.289062 2090.890625 2234.558594 C 2088.894531 2232.988281 2085.484375 2235.101562 2089.601562 2238.027344 C 2094.589844 2241.578125 2099.898438 2243.949219 2106.691406 2244.640625 C 2117.664062 2245.757812 2127.222656 2242.15625 2135.738281 2236.0625 L 2144.195312 2230.175781 C 2145.179688 2229.582031 2146.023438 2228.953125 2147.167969 2228.363281 C 2152.46875 2225.636719 2154.867188 2224.316406 2161.351562 2223.503906 Z M 2161.351562 2223.503906 " fill-opacity="1" fill-rule="evenodd"/></g></svg>